<svg id="Layer_1" data-name="Layer 1" xmlns="http://www.w3.org/2000/svg" xmlns:xlink="http://www.w3.org/1999/xlink" viewBox="0 0 1080 1080"><defs><style>.cls-1{fill:url(#linear-gradient);}</style><linearGradient id="linear-gradient" x1="230.29" y1="718.81" x2="849.71" y2="361.19" gradientUnits="userSpaceOnUse"><stop offset="0" stop-color="#faac50"/><stop offset="0.19" stop-color="#fbb455"/><stop offset="0.61" stop-color="#fdc25d"/><stop offset="1" stop-color="#fec660"/></linearGradient></defs><title>Artboard 1 copy 2</title><path class="cls-1" d="M938.28,514.59,761.14,207.79a50.81,50.81,0,0,0-44-25.41H362.86a50.82,50.82,0,0,0-44,25.41L141.72,514.59a50.84,50.84,0,0,0,0,50.81L318.86,872.21a50.82,50.82,0,0,0,44,25.41H499.53V797.39H398.71c-19.45,0-35.22-18.1-35.22-40.46a43.56,43.56,0,0,1,10.32-28.62c6.37-7.33,15.17-11.86,24.9-11.86H681.29c19.46,0,35.22,18.12,35.22,40.48s-15.76,40.46-35.22,40.46H580.47V897.62H717.14a50.81,50.81,0,0,0,44-25.41L938.28,565.4A50.79,50.79,0,0,0,938.28,514.59ZM363.49,314.34a37.75,37.75,0,0,1,37.75-37.75H678.76a37.75,37.75,0,0,1,37.75,37.75v5.45a37.75,37.75,0,0,1-37.75,37.75H401.24a37.75,37.75,0,0,1-37.75-37.75Zm-49,108.55a36.32,36.32,0,0,1,36.32-36.32H729.17a36.31,36.31,0,0,1,36.32,36.32v8.29a36.33,36.33,0,0,1-36.32,36.33H350.83a36.34,36.34,0,0,1-36.32-36.33Zm451,228.22a36.33,36.33,0,0,1-36.32,36.32H350.83a36.33,36.33,0,0,1-36.32-36.32v-8.29a36.33,36.33,0,0,1,36.32-36.33H729.17a36.33,36.33,0,0,1,36.32,36.33Zm29.9-109.19a35.54,35.54,0,0,1-35.54,35.54H320.16a35.53,35.53,0,0,1-35.54-35.54v-9.85a35.53,35.53,0,0,1,35.54-35.54H759.85a35.54,35.54,0,0,1,35.54,35.54Z"/></svg>